REM DIRINDEX 1\2\6,1\2\7,1\2\8,1\3\9,1\3\10,1\3\11,1\4\12,1\4\13,1\4\14,1\5\15,1\5\16,1\5\17,1\5\18
REM DIRNAME folder01,folder02,folder03,folder04,folder05,folder06,folder07,folder08,folder09,folder10,folder11,folder12,folder13,folder14,folder15,folder16,folder17,folder18
TITLE ""
FILE "2Q_j_1418-1431.mp3" MP3
  TRACK 01 AUDIO
    TITLE "6:cjc019_0716"
    INDEX 01 00:00:00
  TRACK 02 AUDIO
    TITLE "0:"
    INDEX 01 00:01:30
  TRACK 03 AUDIO
    TITLE "7:cjc019_0717"
    INDEX 01 00:02:14
  TRACK 04 AUDIO
    TITLE "0:"
    INDEX 01 00:04:21
  TRACK 05 AUDIO
    TITLE "8:cjc019_0718"
    INDEX 01 00:04:72
  TRACK 06 AUDIO
    TITLE "0:"
    INDEX 01 00:09:51
  TRACK 07 AUDIO
    TITLE "6:cjc019_0719"
    INDEX 01 00:10:31
  TRACK 08 AUDIO
    TITLE "0:"
    INDEX 01 00:11:54
  TRACK 09 AUDIO
    TITLE "7:cjc019_0720"
    INDEX 01 00:12:38
  TRACK 10 AUDIO
    TITLE "0:"
    INDEX 01 00:16:48
  TRACK 11 AUDIO
    TITLE "8:cjc019_0721"
    INDEX 01 00:17:27
  TRACK 12 AUDIO
    TITLE "0:"
    INDEX 01 00:21:45
  TRACK 13 AUDIO
    TITLE "6:cjc019_0722"
    INDEX 01 00:22:27
  TRACK 14 AUDIO
    TITLE "0:"
    INDEX 01 00:23:51
  TRACK 15 AUDIO
    TITLE "7:cjc019_0723"
    INDEX 01 00:24:31
  TRACK 16 AUDIO
    TITLE "0:"
    INDEX 01 00:27:73
  TRACK 17 AUDIO
    TITLE "8:cjc019_0724"
    INDEX 01 00:28:51
  TRACK 18 AUDIO
    TITLE "0:"
    INDEX 01 00:32:58
  TRACK 19 AUDIO
    TITLE "6:cjc019_0725"
    INDEX 01 00:33:48
  TRACK 20 AUDIO
    TITLE "0:"
    INDEX 01 00:35:00
  TRACK 21 AUDIO
    TITLE "7:cjc019_0726"
    INDEX 01 00:35:53
  TRACK 22 AUDIO
    TITLE "0:"
    INDEX 01 00:37:07
  TRACK 23 AUDIO
    TITLE "8:cjc019_0727"
    INDEX 01 00:37:56
  TRACK 24 AUDIO
    TITLE "0:"
    INDEX 01 00:40:07
  TRACK 25 AUDIO
    TITLE "6:cjc019_0728"
    INDEX 01 00:40:58
  TRACK 26 AUDIO
    TITLE "0:"
    INDEX 01 00:42:12
  TRACK 27 AUDIO
    TITLE "7:cjc019_0729"
    INDEX 01 00:42:68
  TRACK 28 AUDIO
    TITLE "0:"
    INDEX 01 00:46:39
  TRACK 29 AUDIO
    TITLE "8:cjc019_0730"
    INDEX 01 00:47:19
  TRACK 30 AUDIO
    TITLE "0:"
    INDEX 01 00:51:15
  TRACK 31 AUDIO
    TITLE "6:cjc019_0731"
    INDEX 01 00:51:67
  TRACK 32 AUDIO
    TITLE "0:"
    INDEX 01 00:53:13
  TRACK 33 AUDIO
    TITLE "7:cjc019_0732"
    INDEX 01 00:53:74
  TRACK 34 AUDIO
    TITLE "0:"
    INDEX 01 00:56:67
  TRACK 35 AUDIO
    TITLE "8:cjc019_0733"
    INDEX 01 00:57:45
  TRACK 36 AUDIO
    TITLE "0:"
    INDEX 01 01:02:48
  TRACK 37 AUDIO
    TITLE "6:cjc019_0734"
    INDEX 01 01:03:26
  TRACK 38 AUDIO
    TITLE "0:"
    INDEX 01 01:04:45
  TRACK 39 AUDIO
    TITLE "7:cjc019_0735"
    INDEX 01 01:05:21
  TRACK 40 AUDIO
    TITLE "0:"
    INDEX 01 01:06:63
  TRACK 41 AUDIO
    TITLE "8:cjc019_0736"
    INDEX 01 01:07:43
  TRACK 42 AUDIO
    TITLE "0:"
    INDEX 01 01:11:58
  TRACK 43 AUDIO
    TITLE "6:cjc019_0737"
    INDEX 01 01:12:40
  TRACK 44 AUDIO
    TITLE "0:"
    INDEX 01 01:14:19
  TRACK 45 AUDIO
    TITLE "7:cjc019_0738"
    INDEX 01 01:14:70
  TRACK 46 AUDIO
    TITLE "0:"
    INDEX 01 01:17:12
  TRACK 47 AUDIO
    TITLE "8:cjc019_0739"
    INDEX 01 01:17:65
  TRACK 48 AUDIO
    TITLE "0:"
    INDEX 01 01:23:48
  TRACK 49 AUDIO
    TITLE "6:cjc019_0740"
    INDEX 01 01:24:28
  TRACK 50 AUDIO
    TITLE "0:"
    INDEX 01 01:25:72
  TRACK 51 AUDIO
    TITLE "7:cjc019_0741"
    INDEX 01 01:26:44
  TRACK 52 AUDIO
    TITLE "0:"
    INDEX 01 01:28:57
  TRACK 53 AUDIO
    TITLE "8:cjc019_0742"
    INDEX 01 01:29:33
  TRACK 54 AUDIO
    TITLE "0:"
    INDEX 01 01:34:06
  TRACK 55 AUDIO
    TITLE "6:cjc019_0743"
    INDEX 01 01:34:63
  TRACK 56 AUDIO
    TITLE "0:"
    INDEX 01 01:36:03
  TRACK 57 AUDIO
    TITLE "7:cjc019_0744"
    INDEX 01 01:36:58
  TRACK 58 AUDIO
    TITLE "0:"
    INDEX 01 01:41:69
  TRACK 59 AUDIO
    TITLE "8:cjc019_0745"
    INDEX 01 01:42:47
  TRACK 60 AUDIO
    TITLE "0:"
    INDEX 01 01:45:63
  TRACK 61 AUDIO
    TITLE "6:cjc019_0746"
    INDEX 01 01:46:47
  TRACK 62 AUDIO
    TITLE "0:"
    INDEX 01 01:48:03
  TRACK 63 AUDIO
    TITLE "7:cjc019_0747"
    INDEX 01 01:48:56
  TRACK 64 AUDIO
    TITLE "0:"
    INDEX 01 01:50:31
  TRACK 65 AUDIO
    TITLE "8:cjc019_0748"
    INDEX 01 01:51:09
  TRACK 66 AUDIO
    TITLE "0:"
    INDEX 01 01:55:42
  TRACK 67 AUDIO
    TITLE "6:cjc019_0749"
    INDEX 01 01:56:24
  TRACK 68 AUDIO
    TITLE "0:"
    INDEX 01 01:58:34
  TRACK 69 AUDIO
    TITLE "7:cjc019_0750"
    INDEX 01 01:59:14
  TRACK 70 AUDIO
    TITLE "0:"
    INDEX 01 02:01:58
  TRACK 71 AUDIO
    TITLE "8:cjc019_0751"
    INDEX 01 02:02:30
  TRACK 72 AUDIO
    TITLE "0:"
    INDEX 01 02:07:31
  TRACK 73 AUDIO
    TITLE "6:cjc019_0752"
    INDEX 01 02:08:09
  TRACK 74 AUDIO
    TITLE "0:"
    INDEX 01 02:09:48
  TRACK 75 AUDIO
    TITLE "7:cjc019_0753"
    INDEX 01 02:10:28
  TRACK 76 AUDIO
    TITLE "0:"
    INDEX 01 02:12:21
  TRACK 77 AUDIO
    TITLE "8:cjc019_0754"
    INDEX 01 02:13:01
  TRACK 78 AUDIO
    TITLE "0:"
    INDEX 01 02:16:36
  TRACK 79 AUDIO
    TITLE "6:cjc019_0755"
    INDEX 01 02:17:16
  TRACK 80 AUDIO
    TITLE "0:"
    INDEX 01 02:18:39
  TRACK 81 AUDIO
    TITLE "7:cjc019_0756"
    INDEX 01 02:19:27
  TRACK 82 AUDIO
    TITLE "0:"
    INDEX 01 02:24:67
  TRACK 83 AUDIO
    TITLE "8:cjc019_0757"
    INDEX 01 02:25:43
  TRACK 84 AUDIO
    TITLE "0:"
    INDEX 01 02:29:31
